<svg width="34.000000" height="34.000000" viewBox="0 0 34 34" fill="none" xmlns="http://www.w3.org/2000/svg" xmlns:xlink="http://www.w3.org/1999/xlink">
	<desc>
			Created with Pixso.
	</desc>
	<defs/>
	<rect id="Social Icons / White / Twitter" width="34.000000" height="34.000000" fill="#FFFFFF" fill-opacity="0"/>
	<g opacity="0.100000">
		<path id="BG" d="M0 17C0 7.61 7.61 0 17 0C26.38 0 34 7.61 34 17C34 26.38 26.38 34 17 34C7.61 34 0 26.38 0 17Z" fill="#FFFFFF" fill-opacity="1.000000" fill-rule="evenodd"/>
	</g>
	<path id="Path" d="M16.49 13.81L16.52 14.4L15.93 14.33C13.76 14.05 11.87 13.12 10.27 11.54L9.48 10.76L9.28 11.34C8.85 12.62 9.13 13.98 10.02 14.89C10.49 15.4 10.39 15.47 9.57 15.17C9.28 15.07 9.03 15 9.01 15.04C8.92 15.12 9.21 16.21 9.43 16.65C9.74 17.25 10.37 17.83 11.06 18.18L11.65 18.46L10.96 18.47C10.29 18.47 10.27 18.48 10.34 18.73C10.58 19.52 11.52 20.34 12.56 20.7L13.3 20.96L12.66 21.34C11.71 21.89 10.59 22.2 9.47 22.23C8.93 22.24 8.5 22.29 8.5 22.32C8.5 22.44 9.95 23.12 10.79 23.38C13.32 24.16 16.33 23.82 18.59 22.49C20.2 21.54 21.8 19.66 22.55 17.83C22.95 16.86 23.36 15.09 23.36 14.23C23.36 13.68 23.39 13.61 24.06 12.95C24.45 12.56 24.82 12.14 24.89 12.02C25.01 11.8 25 11.8 24.39 12C23.38 12.36 23.24 12.31 23.74 11.77C24.11 11.39 24.55 10.69 24.55 10.49C24.55 10.45 24.37 10.51 24.17 10.62C23.95 10.74 23.48 10.92 23.12 11.03L22.48 11.23L21.9 10.84C21.58 10.62 21.12 10.38 20.89 10.31C20.28 10.14 19.35 10.16 18.8 10.36C17.32 10.9 16.38 12.29 16.49 13.81Z" fill="#FFFFFF" fill-opacity="1.000000" fill-rule="evenodd"/>
</svg>
