<svg width="34.000000" height="34.000000" viewBox="0 0 34 34" fill="none" xmlns="http://www.w3.org/2000/svg" xmlns:xlink="http://www.w3.org/1999/xlink">
	<desc>
			Created with Pixso.
	</desc>
	<defs/>
	<rect id="Social Icons / White / Dribbble" width="34.000000" height="34.000000" fill="#FFFFFF" fill-opacity="0"/>
	<g opacity="0.100000">
		<path id="BG" d="M0 17C0 7.61 7.61 0 17 0C26.38 0 34 7.61 34 17C34 26.38 26.38 34 17 34C7.61 34 0 26.38 0 17Z" fill="#FFFFFF" fill-opacity="1.000000" fill-rule="evenodd"/>
	</g>
	<path id="Path" d="M26.06 16.98C26.06 17.6 26 18.21 25.88 18.8C25.76 19.39 25.58 19.96 25.35 20.51C25.12 21.04 24.84 21.56 24.51 22.04C24.19 22.52 23.82 22.97 23.41 23.38C23 23.79 22.54 24.16 22.06 24.49C21.58 24.82 21.06 25.1 20.52 25.32C19.98 25.55 19.4 25.73 18.82 25.85C18.22 25.97 17.61 26.04 16.99 26.04C16.38 26.04 15.77 25.97 15.17 25.85C14.59 25.73 14.01 25.55 13.47 25.32C12.93 25.1 12.41 24.82 11.92 24.49C11.45 24.16 10.99 23.79 10.58 23.38C10.17 22.97 9.8 22.52 9.48 22.04C9.15 21.56 8.87 21.04 8.64 20.51C8.41 19.96 8.23 19.39 8.11 18.8C7.99 18.21 7.93 17.6 7.93 16.98C7.93 16.37 7.99 15.76 8.11 15.16C8.23 14.58 8.41 14 8.64 13.46C8.87 12.92 9.15 12.4 9.48 11.92C9.8 11.44 10.17 10.99 10.58 10.58C10.99 10.17 11.45 9.8 11.92 9.48C12.41 9.15 12.93 8.87 13.47 8.64C14.01 8.41 14.59 8.23 15.17 8.11C15.77 7.99 16.38 7.93 16.99 7.93C17.61 7.93 18.22 7.99 18.82 8.11C19.4 8.23 19.98 8.41 20.52 8.64C21.06 8.87 21.58 9.15 22.06 9.48C22.54 9.8 23 10.17 23.41 10.58C23.82 10.99 24.19 11.44 24.51 11.92C24.84 12.4 25.12 12.92 25.35 13.46C25.58 14 25.76 14.58 25.88 15.16C26 15.76 26.06 16.37 26.06 16.98ZM13.69 9.99C11.53 11.01 9.92 12.99 9.42 15.39C9.62 15.39 12.85 15.43 16.57 14.44C15.23 12.07 13.79 10.13 13.69 9.99ZM17.21 15.64C13.22 16.83 9.4 16.74 9.26 16.74C9.26 16.82 9.25 16.9 9.25 16.98C9.25 18.97 10 20.78 11.24 22.15C11.23 22.14 13.35 18.39 17.53 17.04C17.63 17.01 17.73 16.98 17.84 16.95C17.64 16.51 17.43 16.07 17.21 15.64ZM22.11 11.18C20.74 9.98 18.95 9.25 16.99 9.25C16.37 9.25 15.75 9.33 15.17 9.47C15.29 9.62 16.74 11.55 18.06 13.98C20.99 12.88 22.09 11.21 22.11 11.18ZM18.36 18.23C18.35 18.24 18.33 18.24 18.31 18.25C13.74 19.84 12.25 23.04 12.24 23.08C13.55 24.1 15.2 24.71 16.99 24.71C18.07 24.71 19.09 24.5 20.02 24.1C19.9 23.43 19.45 21.06 18.36 18.23ZM21.32 23.39C23.06 22.22 24.29 20.36 24.64 18.21C24.48 18.16 22.31 17.47 19.81 17.87C20.83 20.66 21.24 22.93 21.32 23.39ZM18.66 15.13C18.84 15.5 19.01 15.87 19.18 16.25C19.23 16.39 19.29 16.52 19.34 16.65C22 16.32 24.62 16.88 24.73 16.9C24.72 15.07 24.06 13.39 22.97 12.07C22.96 12.09 21.72 13.88 18.66 15.13Z" fill="#FFFFFF" fill-opacity="1.000000" fill-rule="evenodd"/>
</svg>
