<svg width="34.000000" height="34.000000" viewBox="0 0 34 34" fill="none" xmlns="http://www.w3.org/2000/svg" xmlns:xlink="http://www.w3.org/1999/xlink">
	<desc>
			Created with Pixso.
	</desc>
	<defs/>
	<rect id="Social Icons / White / Youtube" width="34.000000" height="34.000000" fill="#FFFFFF" fill-opacity="0"/>
	<g opacity="0.100000">
		<path id="BG" d="M0 17C0 7.61 7.61 0 17 0C26.38 0 34 7.61 34 17C34 26.38 26.38 34 17 34C7.61 34 0 26.38 0 17Z" fill="#FFFFFF" fill-opacity="1.000000" fill-rule="evenodd"/>
	</g>
	<path id="Path" d="M24.08 11.15C24.86 11.36 25.47 12 25.68 12.8C26.06 14.25 26.06 17.28 26.06 17.28C26.06 17.28 26.06 20.31 25.68 21.76C25.47 22.56 24.86 23.19 24.08 23.41C22.67 23.8 17 23.8 17 23.8C17 23.8 11.32 23.8 9.91 23.41C9.13 23.19 8.52 22.56 8.31 21.76C7.93 20.31 7.93 17.28 7.93 17.28C7.93 17.28 7.93 14.25 8.31 12.8C8.52 12 9.13 11.36 9.91 11.15C11.32 10.76 17 10.76 17 10.76C17 10.76 22.67 10.76 24.08 11.15ZM15.3 14.73L15.3 20.4L19.83 17.56L15.3 14.73Z" fill="#FFFFFF" fill-opacity="1.000000" fill-rule="evenodd"/>
</svg>
