<svg width="34.000000" height="34.000000" viewBox="0 0 34 34" fill="none" xmlns="http://www.w3.org/2000/svg" xmlns:xlink="http://www.w3.org/1999/xlink">
	<desc>
			Created with Pixso.
	</desc>
	<defs/>
	<rect id="Social Icons / White / Instagram" width="34.000000" height="34.000000" fill="#FFFFFF" fill-opacity="0"/>
	<g opacity="0.100000">
		<path id="BG" d="M0 17C0 7.61 7.61 0 17 0C26.38 0 34 7.61 34 17C34 26.38 26.38 34 17 34C7.61 34 0 26.38 0 17Z" fill="#FFFFFF" fill-opacity="1.000000" fill-rule="evenodd"/>
	</g>
	<path id="Path" d="M17 7.93C14.53 7.93 14.22 7.94 13.26 7.98C12.29 8.03 11.63 8.18 11.06 8.4C10.46 8.64 9.95 8.95 9.45 9.45C8.95 9.95 8.64 10.46 8.4 11.06C8.18 11.63 8.03 12.29 7.98 13.26C7.94 14.22 7.93 14.53 7.93 17C7.93 19.46 7.94 19.77 7.98 20.73C8.03 21.7 8.18 22.36 8.4 22.93C8.64 23.53 8.95 24.04 9.45 24.54C9.95 25.04 10.46 25.35 11.06 25.59C11.63 25.81 12.29 25.96 13.26 26.01C14.22 26.05 14.53 26.06 16.99 26.06C19.46 26.06 19.77 26.05 20.73 26.01C21.7 25.96 22.36 25.81 22.93 25.59C23.53 25.35 24.04 25.04 24.54 24.54C25.04 24.04 25.35 23.53 25.59 22.93C25.81 22.36 25.96 21.7 26.01 20.73C26.05 19.77 26.06 19.46 26.06 17C26.06 14.53 26.05 14.22 26.01 13.26C25.96 12.29 25.81 11.63 25.59 11.06C25.35 10.46 25.04 9.95 24.54 9.45C24.03 8.95 23.53 8.64 22.93 8.4C22.36 8.18 21.7 8.03 20.73 7.98C19.76 7.94 19.46 7.93 16.99 7.93L17 7.93ZM16.18 9.56C16.42 9.56 16.69 9.56 17 9.56C19.42 9.56 19.7 9.57 20.66 9.61C21.54 9.65 22.02 9.8 22.34 9.93C22.77 10.09 23.07 10.29 23.38 10.6C23.7 10.92 23.9 11.22 24.06 11.65C24.19 11.97 24.34 12.45 24.38 13.33C24.42 14.29 24.43 14.57 24.43 16.99C24.43 19.41 24.42 19.7 24.38 20.66C24.34 21.54 24.19 22.02 24.06 22.34C23.9 22.76 23.7 23.06 23.38 23.38C23.07 23.7 22.77 23.89 22.34 24.06C22.02 24.18 21.54 24.33 20.66 24.37C19.7 24.41 19.42 24.42 17 24.42C14.57 24.42 14.29 24.41 13.33 24.37C12.45 24.33 11.97 24.18 11.65 24.06C11.23 23.89 10.92 23.7 10.61 23.38C10.29 23.06 10.09 22.76 9.93 22.34C9.8 22.02 9.66 21.54 9.62 20.65C9.57 19.7 9.56 19.41 9.56 16.99C9.56 14.57 9.57 14.28 9.62 13.33C9.66 12.44 9.8 11.96 9.93 11.64C10.09 11.22 10.29 10.92 10.61 10.6C10.92 10.28 11.23 10.09 11.65 9.92C11.97 9.8 12.45 9.65 13.33 9.61C14.17 9.57 14.49 9.56 16.18 9.56L16.18 9.56ZM21.84 11.07C21.23 11.07 20.75 11.55 20.75 12.16C20.75 12.76 21.23 13.24 21.84 13.24C22.44 13.24 22.92 12.76 22.92 12.16C22.92 11.55 22.44 11.07 21.84 11.07ZM17 12.34C14.42 12.34 12.34 14.42 12.34 17C12.34 19.57 14.42 21.65 17 21.65C19.57 21.65 21.65 19.57 21.65 17C21.65 14.42 19.57 12.34 17 12.34ZM17 13.97C18.66 13.97 20.02 15.33 20.02 17C20.02 18.66 18.66 20.02 17 20.02C15.33 20.02 13.97 18.66 13.97 17C13.97 15.33 15.33 13.97 17 13.97Z" fill="#FFFFFF" fill-opacity="1.000000" fill-rule="evenodd"/>
</svg>
