<svg width="129.000000" height="28.000000" viewBox="0 0 129 28" fill="none" xmlns="http://www.w3.org/2000/svg" xmlns:xlink="http://www.w3.org/1999/xlink">
	<desc>
			Created with Pixso.
	</desc>
	<defs>
		<clipPath id="clip2_310">
			<rect id="Logo" width="28.000000" height="28.000000" fill="white" fill-opacity="0"/>
		</clipPath>
		<clipPath id="clip2_308">
			<rect id="Logotype / Dark" width="129.000000" height="28.000000" fill="white" fill-opacity="0"/>
		</clipPath>
	</defs>
	<g clip-path="url(#clip2_308)">
		<g clip-path="url(#clip2_310)">
			<path id="Rectangle 587" d="M0.57 28L10.06 28C14.57 28 18.21 24.35 18.21 19.84L8.72 19.84C4.22 19.84 0.57 23.49 0.57 28Z" fill="#F22BB2" fill-opacity="1.000000" fill-rule="evenodd"/>
			<path id="Rectangle 591" d="M1 8.15L1 20.13C5.5 20.13 9.15 16.48 9.15 11.98L9.15 0C4.64 0 1 3.64 1 8.15Z" fill="#8C30F5" fill-opacity="1.000000" fill-rule="evenodd"/>
			<path id="Rectangle 587" d="M27.42 0L17.93 0C13.43 0 9.78 3.64 9.78 8.15L19.27 8.15C23.77 8.15 27.42 4.5 27.42 0Z" fill="#FE9A22" fill-opacity="1.000000" fill-rule="evenodd"/>
			<path id="Rectangle 591" d="M27.42 19.36L27.42 7.38C22.92 7.38 19.27 11.03 19.27 15.53L19.27 27.52C23.77 27.52 27.42 23.87 27.42 19.36Z" fill="#2EC5CE" fill-opacity="1.000000" fill-rule="evenodd"/>
		</g>
		<path id="ТаскТрекер" d="M43.74 10.38L46.59 10.38L46.59 8L38.14 8L38.14 10.38L41.01 10.38L41.01 17.94L43.74 17.94L43.74 10.38ZM76.26 10.38L79.12 10.38L79.12 8L70.66 8L70.66 10.38L73.53 10.38L73.53 17.94L76.26 17.94L76.26 10.38ZM47.64 17.9C47.95 18.02 48.29 18.08 48.66 18.08Q49.06 18.08 49.44 17.98Q49.74 17.9 50.03 17.76C50.46 17.53 50.84 17.21 51.16 16.79L51.22 17.06C51.29 17.39 51.45 17.65 51.7 17.83C51.95 17.99 52.31 18.08 52.79 18.08C52.94 18.08 53.1 18.06 53.29 18.04C53.49 18.02 53.69 17.98 53.91 17.94L53.91 15.7C53.72 15.68 53.59 15.62 53.52 15.53C53.44 15.43 53.4 15.25 53.4 15L53.4 13.57Q53.4 12.3 52.78 11.55Q52.63 11.37 52.45 11.22C51.82 10.69 50.91 10.43 49.74 10.43Q48.39 10.43 47.25 10.92Q46.82 11.11 46.42 11.37L47.19 13.02C47.58 12.76 47.95 12.57 48.31 12.44C48.66 12.3 49.05 12.23 49.47 12.23C49.92 12.23 50.24 12.31 50.44 12.48C50.64 12.65 50.74 12.9 50.74 13.25L50.74 13.47Q50.16 13.19 49.26 13.19C48.79 13.19 48.36 13.25 47.97 13.37C47.59 13.49 47.26 13.67 46.98 13.89C46.7 14.12 46.48 14.38 46.32 14.69C46.16 15 46.08 15.34 46.08 15.71Q46.08 16.12 46.21 16.49Q46.24 16.57 46.28 16.65C46.41 16.94 46.59 17.19 46.81 17.41C47.04 17.61 47.32 17.77 47.64 17.9ZM54.76 12.81C54.58 13.27 54.49 13.75 54.49 14.26C54.49 14.76 54.58 15.24 54.76 15.71C54.93 16.17 55.19 16.57 55.53 16.93C55.87 17.27 56.3 17.55 56.8 17.77Q57.56 18.08 58.54 18.08Q59.88 18.08 60.78 17.52C61.38 17.14 61.83 16.66 62.13 16.08L59.54 15.29C59.29 15.66 58.95 15.84 58.52 15.84C58.16 15.84 57.85 15.7 57.6 15.43C57.35 15.15 57.22 14.76 57.22 14.26Q57.22 13.5 57.6 13.1Q57.6 13.09 57.6 13.09C57.85 12.81 58.16 12.67 58.52 12.67C58.95 12.67 59.29 12.86 59.54 13.22L62.13 12.44C61.83 11.85 61.38 11.37 60.78 10.99C60.18 10.62 59.43 10.43 58.54 10.43Q57.56 10.43 56.8 10.76C56.3 10.96 55.87 11.24 55.53 11.6C55.19 11.94 54.93 12.35 54.76 12.81ZM83.39 17.77C83.78 17.97 84.24 18.08 84.78 18.08C85.22 18.08 85.64 17.98 86.02 17.8C86.4 17.6 86.74 17.33 87.02 16.99C87.3 16.64 87.52 16.23 87.67 15.77C87.83 15.29 87.91 14.78 87.91 14.23C87.91 13.69 87.82 13.18 87.65 12.72C87.48 12.25 87.24 11.85 86.95 11.51Q86.78 11.32 86.58 11.16Q86.26 10.9 85.87 10.73C85.45 10.53 85 10.43 84.51 10.43C83.95 10.43 83.48 10.54 83.1 10.76C82.71 10.97 82.39 11.28 82.13 11.68L82.13 10.57L79.82 10.57L79.82 20.92L82.48 20.92L82.48 16.85C82.69 17.25 83 17.55 83.39 17.77ZM90.77 17.78C91.28 17.98 91.85 18.08 92.5 18.08C93.4 18.08 94.16 17.89 94.78 17.52C95.4 17.14 95.87 16.66 96.16 16.08L93.91 15.43C93.83 15.66 93.65 15.85 93.39 15.98C93.14 16.11 92.87 16.17 92.58 16.17C92.27 16.17 91.99 16.09 91.73 15.92C91.46 15.74 91.32 15.46 91.29 15.07L96.46 15.07C96.48 14.96 96.49 14.83 96.5 14.69C96.52 14.54 96.53 14.4 96.53 14.26C96.53 13.75 96.44 13.27 96.26 12.81C96.09 12.35 95.84 11.94 95.49 11.6C95.16 11.24 94.74 10.96 94.23 10.76Q93.48 10.43 92.5 10.43C91.83 10.43 91.25 10.54 90.75 10.76C90.25 10.96 89.83 11.24 89.49 11.6C89.15 11.95 88.89 12.37 88.72 12.84C88.55 13.32 88.46 13.82 88.46 14.35C88.46 14.85 88.55 15.32 88.73 15.77C88.91 16.21 89.16 16.61 89.5 16.96C89.85 17.3 90.27 17.58 90.77 17.78ZM107.04 17.78C107.55 17.98 108.12 18.08 108.77 18.08Q110.12 18.08 111.05 17.52C111.67 17.14 112.14 16.66 112.43 16.08L110.18 15.43C110.1 15.66 109.92 15.85 109.66 15.98C109.41 16.11 109.14 16.17 108.85 16.17C108.54 16.17 108.26 16.09 108 15.92C107.73 15.74 107.59 15.46 107.56 15.07L112.73 15.07C112.75 14.96 112.76 14.83 112.77 14.69C112.79 14.54 112.8 14.4 112.8 14.26C112.8 13.75 112.71 13.27 112.53 12.81C112.36 12.35 112.11 11.94 111.76 11.6C111.43 11.24 111.01 10.96 110.5 10.76C110 10.54 109.42 10.43 108.77 10.43C108.1 10.43 107.52 10.54 107.02 10.76C106.52 10.96 106.1 11.24 105.76 11.6Q105.63 11.73 105.51 11.88Q105.18 12.31 104.99 12.84Q104.97 12.88 104.96 12.91Q104.73 13.59 104.73 14.35C104.73 14.85 104.82 15.32 105 15.77Q105.13 16.1 105.33 16.4Q105.52 16.7 105.77 16.96Q106.29 17.48 107.04 17.78ZM117.27 17.77C117.66 17.97 118.12 18.08 118.66 18.08C119.1 18.08 119.52 17.98 119.9 17.8C120.28 17.6 120.62 17.33 120.9 16.99C121.18 16.64 121.39 16.23 121.55 15.77C121.71 15.29 121.79 14.78 121.79 14.23C121.79 13.69 121.7 13.18 121.53 12.72C121.36 12.25 121.12 11.85 120.83 11.51C120.53 11.18 120.17 10.91 119.75 10.73C119.33 10.53 118.87 10.43 118.39 10.43C117.83 10.43 117.36 10.54 116.98 10.76C116.59 10.97 116.27 11.28 116.01 11.68L116.01 10.57L113.7 10.57L113.7 20.92L116.36 20.92L116.36 16.85C116.57 17.25 116.88 17.55 117.27 17.77ZM70.49 10.57L67.68 10.57L65.71 13.15L65.65 13.15L65.65 10.57L63 10.57L63 17.94L65.65 17.94L65.65 15.57L65.71 15.57L67.67 17.94L70.75 17.94L67.64 14.13L70.49 10.57ZM104.92 10.57L102.11 10.57L100.13 13.15L100.08 13.15L100.08 10.57L97.43 10.57L97.43 17.94L100.08 17.94L100.08 15.57L100.13 15.57L102.09 17.94L105.17 17.94L102.06 14.13L104.92 10.57ZM93.28 12.63C93.49 12.84 93.63 13.12 93.67 13.47L91.24 13.47C91.28 13.12 91.41 12.84 91.63 12.63C91.84 12.43 92.12 12.32 92.45 12.32Q92.82 12.32 93.08 12.48Q93.19 12.54 93.28 12.63ZM109.55 12.63C109.76 12.84 109.9 13.12 109.94 13.47L107.51 13.47C107.55 13.12 107.68 12.84 107.9 12.63C108.11 12.43 108.39 12.32 108.72 12.32C109.06 12.32 109.34 12.43 109.55 12.63ZM84.38 15.71C84.23 15.8 84.05 15.84 83.85 15.84C83.57 15.84 83.31 15.73 83.05 15.52C82.8 15.3 82.61 15.03 82.48 14.7L82.48 13.43C82.83 12.93 83.25 12.67 83.74 12.67C84.18 12.67 84.53 12.81 84.79 13.09C85.06 13.37 85.2 13.75 85.2 14.21C85.2 14.44 85.16 14.65 85.08 14.84C85.02 15.04 84.93 15.21 84.8 15.36Q84.72 15.47 84.63 15.55Q84.52 15.64 84.38 15.71ZM118.26 15.71C118.1 15.8 117.93 15.84 117.73 15.84C117.45 15.84 117.19 15.73 116.93 15.52C116.68 15.3 116.49 15.03 116.36 14.7L116.36 13.43C116.7 12.93 117.12 12.67 117.62 12.67Q118.09 12.67 118.42 12.88Q118.56 12.97 118.67 13.09C118.94 13.37 119.08 13.75 119.08 14.21C119.08 14.44 119.04 14.65 118.96 14.84C118.9 15.04 118.8 15.21 118.68 15.36Q118.6 15.47 118.51 15.55Q118.4 15.64 118.26 15.71ZM49.95 16.1C49.78 16.15 49.61 16.17 49.46 16.17Q49.12 16.17 48.89 16.02Q48.86 16 48.83 15.98C48.67 15.85 48.59 15.68 48.59 15.47C48.59 15.23 48.69 15.03 48.91 14.87C49.12 14.71 49.39 14.63 49.72 14.63C49.87 14.63 50.04 14.65 50.23 14.69C50.41 14.73 50.58 14.77 50.74 14.83L50.74 15.38Q50.74 15.52 50.65 15.66C50.58 15.74 50.5 15.82 50.39 15.89C50.26 15.98 50.11 16.05 49.95 16.1Z" fill="#000000" fill-opacity="1.000000" fill-rule="evenodd"/>
	</g>
</svg>
