<svg width="28.000000" height="28.000000" viewBox="0 0 28 28" fill="none" xmlns="http://www.w3.org/2000/svg" xmlns:xlink="http://www.w3.org/1999/xlink">
	<desc>
			Created with Pixso.
	</desc>
	<defs>
		<clipPath id="clip2_310">
			<rect id="Logo" width="28.000000" height="28.000000" fill="white" fill-opacity="0"/>
		</clipPath>
	</defs>
	<g clip-path="url(#clip2_310)">
		<path id="Rectangle 587" d="M0.57 28L10.06 28C14.57 28 18.21 24.35 18.21 19.84L8.72 19.84C4.22 19.84 0.57 23.49 0.57 28Z" fill="#F22BB2" fill-opacity="1.000000" fill-rule="evenodd"/>
		<path id="Rectangle 591" d="M1 8.15L1 20.13C5.5 20.13 9.15 16.48 9.15 11.98L9.15 0C4.64 0 1 3.64 1 8.15Z" fill="#8C30F5" fill-opacity="1.000000" fill-rule="evenodd"/>
		<path id="Rectangle 587" d="M27.42 0L17.93 0C13.43 0 9.78 3.64 9.78 8.15L19.27 8.15C23.77 8.15 27.42 4.5 27.42 0Z" fill="#FE9A22" fill-opacity="1.000000" fill-rule="evenodd"/>
		<path id="Rectangle 591" d="M27.42 19.36L27.42 7.38C22.92 7.38 19.27 11.03 19.27 15.53L19.27 27.52C23.77 27.52 27.42 23.87 27.42 19.36Z" fill="#2EC5CE" fill-opacity="1.000000" fill-rule="evenodd"/>
	</g>
</svg>
